<svg width="501px" height="56px" viewBox="0 0 501 56" version="1.1" xmlns="http://www.w3.org/2000/svg" xmlns:xlink="http://www.w3.org/1999/xlink">
    <g id="Page-1" stroke="none" stroke-width="1" fill="none" fill-rule="evenodd">
        <g id="serverless_logo_no_undertext_white">
            <g id="Group" transform="translate(1.000000, 0.000000)" fill="#000000">
                <g transform="translate(0.000000, 1.000000)">
                    <polygon id="Path" points="8.6 52 0.9 52 17.7 0.3 25.2 0.3"></polygon>
                    <path d="M35.9,39 C37.7,39 39.1,38.9 40,38.6 C41,38.3 41.4,37.8 41.4,37 C41.4,36.5 41.3,36 41,35.7 C40.7,35.3 40.3,35 39.7,34.8 C39.2,34.5 38.5,34.3 37.8,34.1 C37.1,33.9 36.4,33.6 35.6,33.4 C34.5,33.1 33.4,32.7 32.3,32.3 C31.2,31.9 30.2,31.4 29.2,30.7 C28.3,30.1 27.5,29.3 26.9,28.3 C26.3,27.3 26,26.1 26,24.6 C26,23.4 26.2,22.3 26.7,21.2 C27.2,20.1 27.9,19.2 28.9,18.4 C29.9,17.6 31.1,16.9 32.6,16.5 C34.1,16 35.9,15.8 38,15.8 C39.8,15.8 41.5,15.9 43.1,16.2 C44.7,16.5 46,16.9 47.2,17.4 L46.1,23.6 C45.4,23.4 44.4,23.1 42.9,22.6 C41.5,22.1 39.8,21.9 38,21.9 C36.1,21.9 34.9,22.1 34.2,22.6 C33.5,23.1 33.2,23.5 33.2,24.1 C33.2,24.5 33.3,24.9 33.6,25.3 C33.9,25.6 34.3,25.9 34.8,26.2 C35.3,26.5 35.9,26.7 36.5,27 C37.2,27.3 37.9,27.5 38.6,27.7 C39.7,28.1 40.8,28.5 42,28.9 C43.2,29.3 44.2,29.9 45.1,30.5 C46,31.2 46.8,32 47.4,33 C48,34 48.3,35.3 48.3,36.7 C48.3,37.9 48.1,39 47.6,40 C47.2,41 46.4,41.9 45.4,42.7 C44.4,43.5 43.1,44.1 41.4,44.5 C39.8,44.9 37.7,45.2 35.4,45.2 C33,45.2 30.9,44.9 29.2,44.4 C27.5,43.8 26.1,43.3 25.1,42.9 L26.2,36.7 C27.6,37.3 29.1,37.8 30.7,38.3 C32.7,38.8 34.3,39 35.9,39 Z" id="Path"></path>
                    <path d="M52.6,30.8 C52.6,28.3 53,26.2 53.7,24.3 C54.5,22.4 55.5,20.9 56.7,19.6 C57.9,18.3 59.4,17.4 61,16.8 C62.6,16.2 64.2,15.8 65.9,15.8 C70.1,15.8 73.2,17 75.4,19.5 C77.6,22 78.6,25.5 78.6,30.2 C78.6,30.7 78.6,31.2 78.6,31.7 C78.6,32.2 78.5,32.6 78.5,33 L60.2,33 C60.2,34.8 61,36.3 62.5,37.3 C64,38.4 66,38.9 68.4,38.9 C69.9,38.9 71.3,38.7 72.6,38.4 C73.9,38.1 75.1,37.8 76,37.4 L77,43.7 C75.7,44.1 74.4,44.5 72.9,44.8 C71.5,45.1 69.8,45.2 68.1,45.2 C65.7,45.2 63.6,44.9 61.7,44.3 C59.8,43.7 58.2,42.8 56.9,41.5 C55.6,40.3 54.5,38.8 53.8,37 C52.9,35.3 52.6,33.2 52.6,30.8 Z M71.4,27.8 C71.4,27 71.3,26.3 71.1,25.6 C70.9,24.9 70.6,24.3 70.1,23.7 C69.7,23.1 69.1,22.7 68.4,22.4 C67.7,22.1 66.9,21.9 65.9,21.9 C64.9,21.9 64.1,22.1 63.4,22.4 C62.7,22.7 62.1,23.2 61.7,23.7 C61.2,24.3 60.9,24.9 60.6,25.6 C60.3,26.3 60.2,27.1 60.1,27.8 L71.4,27.8 Z" id="Shape" fill-rule="nonzero"></path>
                    <path d="M105.2,24 C104.7,23.9 104.2,23.8 103.5,23.6 C102.8,23.5 102.2,23.4 101.5,23.3 C100.8,23.2 100.2,23.1 99.5,23.1 C98.9,23.1 98.3,23 97.9,23 C96.9,23 95.8,23.1 94.8,23.1 C93.8,23.2 92.8,23.4 91.7,23.7 L91.7,44.6 L84.3,44.6 L84.3,18.3 C86.3,17.6 88.3,17 90.3,16.6 C92.4,16.2 94.8,15.9 97.5,15.9 C97.9,15.9 98.5,15.9 99.2,16 C99.9,16 100.7,16.1 101.6,16.2 C102.5,16.3 103.3,16.4 104.1,16.6 C105,16.7 105.7,16.9 106.4,17.2 L105.2,24 Z" id="Path"></path>
                    <path d="M120.3,44.6 C118.5,41 116.7,36.9 114.8,32.1 C112.9,27.3 111.2,22.1 109.5,16.4 L117.2,16.4 C117.6,17.9 118,19.5 118.5,21.2 C119,22.9 119.5,24.6 120.1,26.4 C120.7,28.1 121.2,29.8 121.8,31.5 C122.4,33.1 122.9,34.6 123.4,36 C123.9,34.6 124.5,33.1 125.1,31.5 C125.7,29.9 126.4,28.2 127,26.4 C127.6,24.7 128.2,22.9 128.8,21.2 C129.4,19.5 129.8,17.9 130.2,16.4 L137.7,16.4 C136,22.1 134.2,27.3 132.1,32.1 C130.1,36.9 128.1,41 126.4,44.6 L120.3,44.6 Z" id="Path"></path>
                    <path d="M138.9,30.8 C138.9,28.3 139.3,26.2 140,24.3 C140.8,22.4 141.8,20.9 143,19.6 C144.2,18.3 145.7,17.4 147.3,16.8 C148.9,16.2 150.5,15.8 152.2,15.8 C156.4,15.8 159.5,17 161.7,19.5 C163.9,22 164.9,25.5 164.9,30.2 C164.9,30.7 164.9,31.2 164.9,31.7 C164.9,32.2 164.8,32.6 164.8,33 L146.5,33 C146.5,34.8 147.3,36.3 148.8,37.3 C150.3,38.4 152.3,38.9 154.7,38.9 C156.2,38.9 157.6,38.7 158.9,38.4 C160.2,38.1 161.4,37.8 162.3,37.4 L163.3,43.7 C162,44.1 160.7,44.5 159.2,44.8 C157.8,45.1 156.1,45.2 154.4,45.2 C152,45.2 149.9,44.9 148,44.3 C146.1,43.7 144.5,42.8 143.2,41.5 C141.9,40.3 140.8,38.8 140.1,37 C139.2,35.3 138.9,33.2 138.9,30.8 Z M157.7,27.8 C157.7,27 157.6,26.3 157.4,25.6 C157.2,24.9 156.9,24.3 156.4,23.7 C156,23.1 155.4,22.7 154.7,22.4 C154,22.1 153.2,21.9 152.2,21.9 C151.2,21.9 150.4,22.1 149.7,22.4 C149,22.7 148.4,23.2 148,23.7 C147.5,24.3 147.2,24.9 146.9,25.6 C146.6,26.3 146.5,27.1 146.4,27.8 L157.7,27.8 Z" id="Shape" fill-rule="nonzero"></path>
                    <path d="M191.5,24 C191,23.9 190.5,23.8 189.8,23.6 C189.1,23.5 188.5,23.4 187.8,23.3 C187.1,23.2 186.5,23.1 185.8,23.1 C185.2,23.1 184.6,23 184.2,23 C183.2,23 182.1,23.1 181.1,23.1 C180.1,23.2 179.1,23.4 178,23.7 L178,44.6 L170.6,44.6 L170.6,18.3 C172.6,17.6 174.6,17 176.6,16.6 C178.7,16.2 181.1,15.9 183.8,15.9 C184.2,15.9 184.8,15.9 185.5,16 C186.2,16 187,16.1 187.9,16.2 C188.8,16.3 189.6,16.4 190.4,16.6 C191.3,16.7 192,16.9 192.7,17.2 L191.5,24 Z" id="Path"></path>
                    <path d="M218.2,43.4 C218.1,43.5 217.8,43.6 217.4,43.8 C217,44 216.4,44.2 215.8,44.4 C215.1,44.6 214.3,44.8 213.3,45 C212.3,45.2 211.2,45.2 210,45.2 C206.6,45.2 204.1,44.2 202.6,42.2 C201,40.2 200.3,37.2 200.3,33.4 L200.3,9.5 L192.5,9.5 L192.5,3.4 L207.6,3.4 L207.6,34 C207.6,35.9 208,37.2 208.7,37.9 C209.5,38.6 210.4,38.9 211.6,38.9 C213.1,38.9 214.3,38.7 215.3,38.3 C216.3,37.9 217,37.6 217.3,37.5 L218.2,43.4 Z" id="Path"></path>
                    <path d="M220.5,30.8 C220.5,28.3 220.9,26.2 221.6,24.3 C222.4,22.4 223.4,20.9 224.6,19.6 C225.8,18.3 227.3,17.4 228.9,16.8 C230.5,16.2 232.1,15.8 233.8,15.8 C238,15.8 241.1,17 243.3,19.5 C245.5,22 246.5,25.5 246.5,30.2 C246.5,30.7 246.5,31.2 246.5,31.7 C246.5,32.2 246.4,32.6 246.4,33 L228.1,33 C228.1,34.8 228.9,36.3 230.4,37.3 C231.9,38.4 233.9,38.9 236.3,38.9 C237.8,38.9 239.2,38.7 240.5,38.4 C241.8,38.1 243,37.8 243.9,37.4 L244.9,43.7 C243.6,44.1 242.3,44.5 240.8,44.8 C239.4,45.1 237.7,45.2 236,45.2 C233.6,45.2 231.5,44.9 229.6,44.3 C227.7,43.7 226.1,42.8 224.8,41.5 C223.5,40.3 222.4,38.8 221.7,37 C220.9,35.3 220.5,33.2 220.5,30.8 Z M239.4,27.8 C239.4,27 239.3,26.3 239.1,25.6 C238.9,24.9 238.6,24.3 238.1,23.7 C237.7,23.1 237.1,22.7 236.4,22.4 C235.7,22.1 234.9,21.9 233.9,21.9 C232.9,21.9 232.1,22.1 231.4,22.4 C230.7,22.7 230.1,23.2 229.7,23.7 C229.2,24.3 228.9,24.9 228.6,25.6 C228.3,26.3 228.2,27.1 228.1,27.8 L239.4,27.8 Z" id="Shape" fill-rule="nonzero"></path>
                    <path d="M260.8,39 C262.6,39 264,38.9 264.9,38.6 C265.8,38.3 266.3,37.8 266.3,37 C266.3,36.5 266.2,36 265.9,35.7 C265.6,35.3 265.2,35 264.6,34.8 C264.1,34.5 263.4,34.3 262.7,34.1 C262,33.9 261.3,33.6 260.5,33.4 C259.4,33.1 258.3,32.7 257.2,32.3 C256.1,31.9 255.1,31.4 254.1,30.7 C253.2,30.1 252.4,29.3 251.8,28.3 C251.2,27.3 250.9,26.1 250.9,24.6 C250.9,23.4 251.1,22.3 251.6,21.2 C252.1,20.1 252.8,19.2 253.8,18.4 C254.8,17.6 256,16.9 257.5,16.5 C259,16 260.8,15.8 262.9,15.8 C264.7,15.8 266.4,15.9 268,16.2 C269.6,16.5 270.9,16.9 272.1,17.4 L271,23.6 C270.3,23.4 269.3,23.1 267.8,22.6 C266.4,22.1 264.7,21.9 263,21.9 C261.1,21.9 259.9,22.1 259.2,22.6 C258.5,23.1 258.2,23.5 258.2,24.1 C258.2,24.5 258.3,24.9 258.6,25.3 C258.9,25.6 259.3,25.9 259.8,26.2 C260.3,26.5 260.9,26.7 261.5,27 C262.2,27.3 262.9,27.5 263.6,27.7 C264.7,28.1 265.8,28.5 267,28.9 C268.2,29.3 269.2,29.9 270.1,30.5 C271,31.1 271.8,32 272.4,33 C273,34 273.3,35.3 273.3,36.7 C273.3,37.9 273.1,39 272.6,40 C272.2,41 271.4,41.9 270.4,42.7 C269.4,43.5 268.1,44.1 266.4,44.5 C264.8,44.9 262.7,45.2 260.4,45.2 C258,45.2 255.9,44.9 254.2,44.4 C252.5,43.8 251.1,43.3 250.1,42.9 L251.2,36.7 C252.6,37.3 254.1,37.8 255.7,38.3 C257.6,38.8 259.2,39 260.8,39 Z" id="Path"></path>
                    <path d="M288.3,39 C290.1,39 291.5,38.9 292.4,38.6 C293.3,38.3 293.8,37.8 293.8,37 C293.8,36.5 293.7,36 293.4,35.7 C293.1,35.3 292.7,35 292.1,34.8 C291.6,34.5 290.9,34.3 290.2,34.1 C289.5,33.9 288.8,33.6 288,33.4 C286.9,33.1 285.8,32.7 284.7,32.3 C283.6,31.9 282.6,31.4 281.6,30.7 C280.7,30.1 279.9,29.3 279.3,28.3 C278.7,27.3 278.4,26.1 278.4,24.6 C278.4,23.4 278.6,22.3 279.1,21.2 C279.6,20.1 280.3,19.2 281.3,18.4 C282.3,17.6 283.5,16.9 285,16.5 C286.5,16 288.3,15.8 290.4,15.8 C292.2,15.8 293.9,15.9 295.5,16.2 C297.1,16.5 298.4,16.9 299.6,17.4 L298.5,23.6 C297.8,23.4 296.8,23.1 295.3,22.6 C293.9,22.1 292.2,21.9 290.5,21.9 C288.6,21.9 287.4,22.1 286.7,22.6 C286,23.1 285.7,23.5 285.7,24.1 C285.7,24.5 285.8,24.9 286.1,25.3 C286.4,25.6 286.8,25.9 287.3,26.2 C287.8,26.5 288.4,26.7 289,27 C289.7,27.3 290.4,27.5 291.1,27.7 C292.2,28.1 293.3,28.5 294.5,28.9 C295.7,29.3 296.7,29.9 297.6,30.5 C298.5,31.2 299.3,32 299.9,33 C300.5,34 300.8,35.3 300.8,36.7 C300.8,37.9 300.6,39 300.1,40 C299.7,41 298.9,41.9 297.9,42.7 C296.9,43.5 295.6,44.1 293.9,44.5 C292.3,44.9 290.2,45.2 287.9,45.2 C285.5,45.2 283.4,44.9 281.7,44.4 C280,43.8 278.6,43.3 277.6,42.9 L278.7,36.7 C280.1,37.3 281.6,37.8 283.2,38.3 C285.1,38.8 286.7,39 288.3,39 Z" id="Path"></path>
                    <polygon id="Path" points="311.1 52 303.4 52 320.2 0.3 327.7 0.3"></polygon>
                </g>
                <g transform="translate(324.000000, 0.000000)">
                    <path d="M41.8,17.1 L35.8,17.1 L35.8,37.7 L41.8,37.7 C48.3,37.7 52.1,33 52.1,27.4 C52.1,21.6 48.5,17.1 41.8,17.1 Z" id="Path"></path>
                    <polygon id="Path" points="70.8 32.1 81.7 32.1 76.3 17"></polygon>
                    <path d="M15.4,0.6 L0.2,53.4 L159.4,53.4 L174.6,0.6 L15.4,0.6 Z M41.8,43.9 L28.8,43.9 L28.8,11 L41.8,11 C52.1,11 59.3,17.6 59.3,27.5 C59.2,37.3 52.1,43.9 41.8,43.9 Z M85.7,43.9 L83.6,38.2 L68.9,38.2 L66.8,43.9 L59.1,43.9 L71.9,11 L80.7,11 L93.4,43.9 L85.7,43.9 Z M108.6,43.9 L101.6,43.9 L101.6,30.4 L89,11 L97,11 L105.2,24.2 L113.3,11 L121.3,11 L108.7,30.4 L108.7,43.9 L108.6,43.9 Z M134.5,44.4 C128.2,44.4 123.7,42.3 120.5,39.2 L124.3,33.9 C126.6,36.3 130.2,38.3 134.8,38.3 C138.6,38.3 140.5,36.5 140.5,34.6 C140.5,32.1 137.6,31.3 133.8,30.4 C128.4,29.2 121.5,27.7 121.5,20.3 C121.5,14.8 126.2,10.4 134,10.4 C139.2,10.4 143.6,12 146.8,15 L142.9,20.1 C140.2,17.6 136.7,16.5 133.5,16.5 C130.3,16.5 128.7,17.9 128.7,19.9 C128.7,22.1 131.5,22.8 135.3,23.7 C140.7,24.9 147.6,26.6 147.6,33.9 C147.7,39.9 143.4,44.4 134.5,44.4 Z" id="Shape" fill-rule="nonzero"></path>
                </g>
                <path d="M293.2,55.2 L280.9,55.2 C279.9,55.2 279.1,54.4 279.1,53.4 C279.1,52.4 279.9,51.6 280.9,51.6 L293.2,51.6 C294.2,51.6 295,52.4 295,53.4 C295,54.4 294.2,55.2 293.2,55.2 Z M270.3,55.2 L258,55.2 C257,55.2 256.2,54.4 256.2,53.4 C256.2,52.4 257,51.6 258,51.6 L270.3,51.6 C271.3,51.6 272.1,52.4 272.1,53.4 C272.1,54.4 271.3,55.2 270.3,55.2 Z M247.4,55.2 L235.1,55.2 C234.1,55.2 233.3,54.4 233.3,53.4 C233.3,52.4 234.1,51.6 235.1,51.6 L247.4,51.6 C248.4,51.6 249.2,52.4 249.2,53.4 C249.2,54.4 248.4,55.2 247.4,55.2 Z M224.5,55.2 L212.2,55.2 C211.2,55.2 210.4,54.4 210.4,53.4 C210.4,52.4 211.2,51.6 212.2,51.6 L224.5,51.6 C225.5,51.6 226.3,52.4 226.3,53.4 C226.3,54.4 225.5,55.2 224.5,55.2 Z M201.6,55.2 L189.3,55.2 C188.3,55.2 187.5,54.4 187.5,53.4 C187.5,52.4 188.3,51.6 189.3,51.6 L201.6,51.6 C202.6,51.6 203.4,52.4 203.4,53.4 C203.4,54.4 202.6,55.2 201.6,55.2 Z M178.7,55.2 L166.4,55.2 C165.4,55.2 164.6,54.4 164.6,53.4 C164.6,52.4 165.4,51.6 166.4,51.6 L178.7,51.6 C179.7,51.6 180.5,52.4 180.5,53.4 C180.5,54.4 179.7,55.2 178.7,55.2 Z M155.8,55.2 L143.5,55.2 C142.5,55.2 141.7,54.4 141.7,53.4 C141.7,52.4 142.5,51.6 143.5,51.6 L155.8,51.6 C156.8,51.6 157.6,52.4 157.6,53.4 C157.6,54.4 156.8,55.2 155.8,55.2 Z M133,55.2 L120.7,55.2 C119.7,55.2 118.9,54.4 118.9,53.4 C118.9,52.4 119.7,51.6 120.7,51.6 L133,51.6 C134,51.6 134.8,52.4 134.8,53.4 C134.8,54.4 133.9,55.2 133,55.2 Z M110.1,55.2 L97.8,55.2 C96.8,55.2 96,54.4 96,53.4 C96,52.4 96.8,51.6 97.8,51.6 L110.1,51.6 C111.1,51.6 111.9,52.4 111.9,53.4 C111.9,54.4 111,55.2 110.1,55.2 Z M87.2,55.2 L74.8,55.2 C73.8,55.2 73,54.4 73,53.4 C73,52.4 73.8,51.6 74.8,51.6 L87.1,51.6 C88.1,51.6 88.9,52.4 88.9,53.4 C88.9,54.4 88.1,55.2 87.2,55.2 Z M64.3,55.2 L51.9,55.2 C50.9,55.2 50.1,54.4 50.1,53.4 C50.1,52.4 50.9,51.6 51.9,51.6 L64.2,51.6 C65.2,51.6 66,52.4 66,53.4 C66,54.4 65.2,55.2 64.3,55.2 Z M41.4,55.2 L29.1,55.2 C28.1,55.2 27.3,54.4 27.3,53.4 C27.3,52.4 28.1,51.6 29.1,51.6 L41.4,51.6 C42.4,51.6 43.2,52.4 43.2,53.4 C43.2,54.4 42.4,55.2 41.4,55.2 Z" id="Shape" fill-rule="nonzero"></path>
            </g>
            <g id="Group" fill="#FFFFFF">
                <g>
                    <polygon id="Path" points="7.9 52.8 0.2 52.8 17.1 0.8 24.7 0.8"></polygon>
                    <path d="M35.4,39.8 C37.2,39.8 38.6,39.7 39.6,39.4 C40.6,39.1 41,38.6 41,37.8 C41,37.3 40.8,36.8 40.5,36.5 C40.2,36.1 39.8,35.8 39.2,35.6 C38.7,35.3 38,35.1 37.3,34.8 C36.6,34.6 35.9,34.3 35.1,34.1 C34,33.8 32.9,33.4 31.8,33 C30.7,32.6 29.7,32 28.7,31.4 C27.8,30.8 27,29.9 26.4,29 C25.8,28 25.5,26.8 25.5,25.3 C25.5,24.1 25.7,23 26.2,21.9 C26.7,20.8 27.4,19.9 28.4,19.1 C29.4,18.3 30.6,17.6 32.2,17.2 C33.7,16.7 35.6,16.5 37.7,16.5 C39.5,16.5 41.3,16.6 42.8,16.9 C44.4,17.2 45.8,17.6 46.9,18.1 L45.8,24.4 C45.1,24.2 44.1,23.9 42.6,23.4 C41.2,22.9 39.5,22.7 37.7,22.7 C35.8,22.7 34.5,22.9 33.9,23.4 C33.2,23.9 32.9,24.4 32.9,24.9 C32.9,25.3 33.1,25.7 33.4,26.1 C33.7,26.4 34.1,26.8 34.6,27 C35.1,27.3 35.7,27.6 36.3,27.8 C37,28.1 37.7,28.3 38.4,28.6 C39.5,29 40.6,29.4 41.8,29.8 C43,30.2 44,30.8 45,31.5 C45.9,32.2 46.7,33 47.3,34 C47.9,35 48.2,36.3 48.2,37.8 C48.2,39 48,40.1 47.5,41.1 C47.1,42.1 46.3,43 45.3,43.8 C44.3,44.6 42.9,45.2 41.3,45.6 C39.7,46 37.6,46.3 35.2,46.3 C32.8,46.3 30.7,46 28.9,45.5 C27.2,44.9 25.8,44.4 24.7,44 L25.8,37.8 C27.2,38.4 28.7,38.9 30.3,39.4 C32.2,39.6 33.8,39.8 35.4,39.8 Z" id="Path"></path>
                    <path d="M52.2,31.5 C52.2,29 52.6,26.8 53.3,24.9 C54.1,23 55.1,21.4 56.3,20.2 C57.5,18.9 59,18 60.6,17.3 C62.2,16.7 63.9,16.3 65.5,16.3 C69.7,16.3 72.8,17.5 75,20 C77.2,22.5 78.3,26.1 78.3,30.8 C78.3,31.3 78.3,31.8 78.3,32.3 C78.3,32.8 78.2,33.2 78.2,33.6 L59.8,33.6 C59.8,35.4 60.6,36.9 62.1,38 C63.6,39.1 65.6,39.6 68,39.6 C69.5,39.6 70.9,39.4 72.2,39.1 C73.5,38.8 74.7,38.5 75.6,38.1 L76.6,44.4 C75.3,44.8 74,45.2 72.5,45.5 C71.1,45.8 69.4,46 67.6,46 C65.2,46 63,45.7 61.1,45.1 C59.2,44.5 57.6,43.6 56.2,42.3 C54.9,41.1 53.8,39.6 53.1,37.8 C52.5,36 52.2,33.9 52.2,31.5 Z M71.1,28.6 C71.1,27.8 71,27.1 70.8,26.4 C70.6,25.7 70.3,25.1 69.8,24.5 C69.4,23.9 68.8,23.5 68.1,23.1 C67.4,22.8 66.6,22.6 65.6,22.6 C64.6,22.6 63.8,22.8 63.1,23.1 C62.4,23.4 61.8,23.9 61.4,24.4 C60.9,25 60.6,25.6 60.3,26.3 C60,27 59.9,27.8 59.8,28.5 L71.1,28.5 L71.1,28.6 Z" id="Shape" fill-rule="nonzero"></path>
                    <path d="M105.1,24.6 C104.6,24.5 104,24.4 103.4,24.2 C102.7,24.1 102.1,24 101.4,23.9 C100.7,23.8 100.1,23.7 99.4,23.7 C98.8,23.7 98.2,23.6 97.8,23.6 C96.8,23.6 95.7,23.7 94.7,23.8 C93.7,23.9 92.7,24.1 91.6,24.4 L91.6,45.4 L84.1,45.4 L84.1,19 C86.1,18.3 88.1,17.7 90.1,17.3 C92.2,16.9 94.6,16.6 97.4,16.6 C97.8,16.6 98.4,16.6 99.1,16.7 C99.8,16.7 100.6,16.8 101.5,16.9 C102.3,17 103.2,17.1 104.1,17.3 C105,17.4 105.7,17.6 106.4,17.9 L105.1,24.6 Z" id="Path"></path>
                    <path d="M120.3,45.4 C118.5,41.8 116.7,37.6 114.8,32.8 C112.9,28 111.2,22.8 109.5,17.1 L117.3,17.1 C117.7,18.6 118.1,20.3 118.6,22 C119.1,23.7 119.6,25.5 120.2,27.2 C120.8,28.9 121.3,30.6 121.9,32.3 C122.5,33.9 123,35.5 123.6,36.8 C124.1,35.4 124.7,33.9 125.3,32.3 C125.9,30.7 126.6,29 127.2,27.2 C127.8,25.5 128.4,23.7 129,22 C129.6,20.3 130.1,18.6 130.4,17.1 L137.9,17.1 C136.2,22.8 134.3,28 132.3,32.8 C130.3,37.6 128.3,41.8 126.5,45.4 L120.3,45.4 Z" id="Path"></path>
                    <path d="M138.9,31.5 C138.9,29 139.3,26.8 140,24.9 C140.8,23 141.8,21.4 143,20.2 C144.2,18.9 145.7,18 147.3,17.3 C148.9,16.7 150.6,16.3 152.2,16.3 C156.4,16.3 159.5,17.5 161.7,20 C163.9,22.5 165,26.1 165,30.8 C165,31.3 165,31.8 165,32.3 C165,32.8 164.9,33.2 164.9,33.6 L146.5,33.6 C146.5,35.4 147.3,36.9 148.8,38 C150.3,39.1 152.3,39.6 154.7,39.6 C156.2,39.6 157.6,39.4 158.9,39.1 C160.2,38.8 161.4,38.5 162.3,38.1 L163.3,44.4 C162,44.8 160.7,45.2 159.2,45.5 C157.8,45.8 156.1,46 154.3,46 C151.9,46 149.7,45.7 147.8,45.1 C145.9,44.5 144.3,43.6 142.9,42.3 C141.6,41.1 140.5,39.6 139.8,37.8 C139.3,36 138.9,33.9 138.9,31.5 Z M157.9,28.6 C157.9,27.8 157.8,27.1 157.6,26.4 C157.4,25.7 157.1,25.1 156.6,24.5 C156.2,23.9 155.6,23.5 154.9,23.1 C154.2,22.8 153.4,22.6 152.4,22.6 C151.4,22.6 150.6,22.8 149.9,23.1 C149.2,23.4 148.6,23.9 148.2,24.4 C147.7,25 147.4,25.6 147.1,26.3 C146.8,27 146.7,27.8 146.6,28.5 L157.9,28.5 L157.9,28.6 Z" id="Shape" fill-rule="nonzero"></path>
                    <path d="M191.8,24.6 C191.3,24.5 190.7,24.4 190.1,24.2 C189.4,24.1 188.8,24 188.1,23.9 C187.4,23.8 186.8,23.7 186.1,23.7 C185.5,23.7 184.9,23.6 184.5,23.6 C183.5,23.6 182.4,23.7 181.4,23.8 C180.4,23.9 179.4,24.1 178.3,24.4 L178.3,45.4 L170.8,45.4 L170.8,19 C172.8,18.3 174.8,17.7 176.8,17.3 C178.9,16.9 181.3,16.6 184.1,16.6 C184.5,16.6 185.1,16.6 185.8,16.7 C186.5,16.7 187.3,16.8 188.2,16.9 C189,17 189.9,17.1 190.8,17.3 C191.7,17.4 192.4,17.6 193.1,17.9 L191.8,24.6 Z" id="Path"></path>
                    <path d="M218.7,44.2 C218.6,44.3 218.3,44.4 217.9,44.6 C217.5,44.8 216.9,45 216.2,45.2 C215.5,45.4 214.7,45.6 213.7,45.8 C212.7,46 211.6,46 210.4,46 C207,46 204.5,45 202.9,43 C201.3,41 200.6,38 200.6,34.1 L200.6,10.1 L192.8,10.1 L192.8,4 L208,4 L208,34.7 C208,36.6 208.4,37.9 209.1,38.6 C209.9,39.3 210.8,39.6 212,39.6 C213.5,39.6 214.7,39.4 215.7,39 C216.7,38.6 217.4,38.3 217.7,38.2 L218.7,44.2 Z" id="Path"></path>
                    <path d="M221,31.5 C221,29 221.4,26.8 222.1,24.9 C222.9,23 223.9,21.4 225.1,20.2 C226.3,18.9 227.8,18 229.4,17.3 C231,16.7 232.7,16.3 234.3,16.3 C238.5,16.3 241.6,17.5 243.8,20 C246,22.5 247.1,26.1 247.1,30.8 C247.1,31.3 247.1,31.8 247.1,32.3 C247.1,32.8 247,33.2 247,33.6 L228.6,33.6 C228.6,35.4 229.4,36.9 230.9,38 C232.4,39.1 234.4,39.6 236.8,39.6 C238.3,39.6 239.7,39.4 241,39.1 C242.3,38.8 243.5,38.5 244.4,38.1 L245.4,44.4 C244.1,44.8 242.8,45.2 241.3,45.5 C239.9,45.8 238.2,46 236.4,46 C234,46 231.8,45.7 229.9,45.1 C228,44.5 226.4,43.6 225,42.3 C223.7,41.1 222.6,39.6 221.9,37.8 C221.4,36 221,33.9 221,31.5 Z M240,28.6 C240,27.8 239.9,27.1 239.7,26.4 C239.5,25.7 239.2,25.1 238.7,24.5 C238.3,23.9 237.7,23.5 237,23.1 C236.3,22.8 235.5,22.6 234.5,22.6 C233.5,22.6 232.7,22.8 232,23.1 C231.3,23.4 230.7,23.9 230.3,24.4 C229.8,25 229.5,25.6 229.2,26.3 C228.9,27 228.8,27.8 228.7,28.5 L240,28.5 L240,28.6 Z" id="Shape" fill-rule="nonzero"></path>
                    <path d="M261.5,39.8 C263.3,39.8 264.7,39.7 265.7,39.4 C266.7,39.1 267.1,38.6 267.1,37.8 C267.1,37.3 266.9,36.8 266.6,36.5 C266.3,36.1 265.9,35.8 265.3,35.6 C264.8,35.3 264.1,35.1 263.4,34.8 C262.7,34.6 262,34.3 261.2,34.1 C260.1,33.8 259,33.4 257.9,33 C256.8,32.6 255.8,32 254.8,31.4 C253.9,30.8 253.1,29.9 252.5,29 C251.9,28 251.6,26.8 251.6,25.3 C251.6,24.1 251.8,23 252.3,21.9 C252.8,20.8 253.5,19.9 254.5,19.1 C255.5,18.3 256.7,17.6 258.3,17.2 C259.8,16.7 261.7,16.5 263.8,16.5 C265.6,16.5 267.4,16.6 268.9,16.9 C270.5,17.2 271.9,17.6 273,18.1 L271.9,24.4 C271.2,24.2 270.2,23.9 268.7,23.4 C267.3,22.9 265.6,22.7 263.8,22.7 C261.9,22.7 260.6,22.9 260,23.4 C259.3,23.9 259,24.4 259,24.9 C259,25.3 259.2,25.7 259.5,26.1 C259.8,26.4 260.2,26.8 260.7,27 C261.2,27.3 261.8,27.6 262.4,27.8 C263.1,28.1 263.8,28.3 264.5,28.6 C265.6,29 266.7,29.4 267.9,29.8 C269.1,30.2 270.1,30.8 271.1,31.5 C272,32.2 272.8,33 273.4,34 C274,35 274.3,36.3 274.3,37.8 C274.3,39 274.1,40.1 273.6,41.1 C273.2,42.1 272.4,43 271.4,43.8 C270.4,44.6 269,45.2 267.4,45.6 C265.8,46 263.7,46.3 261.3,46.3 C258.9,46.3 256.8,46 255,45.5 C253.3,44.9 251.9,44.4 250.8,44 L251.9,37.8 C253.3,38.4 254.8,38.9 256.4,39.4 C258.3,39.6 259.9,39.8 261.5,39.8 Z" id="Path"></path>
                    <path d="M289.2,39.8 C291,39.8 292.4,39.7 293.4,39.4 C294.4,39.1 294.8,38.6 294.8,37.8 C294.8,37.3 294.6,36.8 294.3,36.5 C294,36.1 293.6,35.8 293,35.6 C292.5,35.3 291.8,35.1 291.1,34.8 C290.4,34.6 289.7,34.3 288.9,34.1 C287.8,33.8 286.7,33.4 285.6,33 C284.5,32.6 283.5,32 282.5,31.4 C281.6,30.8 280.8,29.9 280.2,29 C279.6,28 279.3,26.8 279.3,25.3 C279.3,24.1 279.5,23 280,21.9 C280.5,20.8 281.2,19.9 282.2,19.1 C283.2,18.3 284.4,17.6 286,17.2 C287.5,16.7 289.4,16.5 291.5,16.5 C293.3,16.5 295.1,16.6 296.6,16.9 C298.2,17.2 299.6,17.6 300.7,18.1 L299.6,24.4 C298.9,24.2 297.9,23.9 296.4,23.4 C295,22.9 293.3,22.7 291.5,22.7 C289.6,22.7 288.3,22.9 287.7,23.4 C287,23.9 286.7,24.4 286.7,24.9 C286.7,25.3 286.9,25.7 287.2,26.1 C287.5,26.4 287.9,26.8 288.4,27 C288.9,27.3 289.5,27.6 290.1,27.8 C290.8,28.1 291.5,28.3 292.2,28.6 C293.3,29 294.4,29.4 295.6,29.8 C296.8,30.2 297.8,30.8 298.8,31.5 C299.7,32.2 300.5,33 301.1,34 C301.7,35 302,36.3 302,37.8 C302,39 301.8,40.1 301.3,41.1 C300.9,42.1 300.1,43 299.1,43.8 C298.1,44.6 296.7,45.2 295.1,45.6 C293.5,46 291.4,46.3 289,46.3 C286.6,46.3 284.5,46 282.7,45.5 C281,44.9 279.6,44.4 278.5,44 L279.6,37.8 C281,38.4 282.5,38.9 284.1,39.4 C285.9,39.6 287.5,39.8 289.2,39.8 Z" id="Path"></path>
                    <polygon id="Path" points="312.1 52.8 304.4 52.8 321.3 0.8 328.9 0.8"></polygon>
                </g>
                <g transform="translate(325.000000, 0.000000)">
                    <path d="M42.1,16.8 L36.1,16.8 L36.1,37.5 L42.1,37.5 C48.6,37.5 52.5,32.8 52.5,27.2 C52.4,21.3 48.9,16.8 42.1,16.8 Z" id="Path"></path>
                    <polygon id="Path" points="71.3 31.8 82.2 31.8 76.8 16.7"></polygon>
                    <path d="M15.6,0.1 L0.3,53.2 L160.3,53.2 L175.6,0.1 L15.6,0.1 Z M42.1,43.6 L29.1,43.6 L29.1,10.6 L42.1,10.6 C52.5,10.6 59.6,17.2 59.6,27.2 C59.6,37.1 52.4,43.6 42.1,43.6 Z M86.2,43.6 L84.1,37.9 L69.3,37.9 L67.2,43.6 L59.5,43.6 L72.3,10.5 L81.1,10.5 L93.8,43.6 L86.2,43.6 Z M109.3,43.6 L102.3,43.6 L102.3,30.1 L89.6,10.6 L97.6,10.6 L105.8,23.9 L113.9,10.6 L121.9,10.6 L109.3,30.1 L109.3,43.6 Z M135.3,44.2 C129,44.2 124.4,42.1 121.3,38.9 L125.2,33.5 C127.5,35.9 131.1,38 135.7,38 C139.6,38 141.5,36.2 141.5,34.3 C141.5,31.8 138.6,31 134.8,30.1 C129.4,28.9 122.5,27.4 122.5,20 C122.5,14.5 127.3,10 135,10 C140.3,10 144.6,11.6 147.9,14.6 L144,19.8 C141.3,17.3 137.8,16.2 134.5,16.2 C131.3,16.2 129.6,17.6 129.6,19.6 C129.6,21.8 132.4,22.5 136.2,23.4 C141.7,24.6 148.6,26.3 148.6,33.6 C148.6,39.7 144.3,44.2 135.3,44.2 Z" id="Shape" fill-rule="nonzero"></path>
                </g>
                <path d="M294.1,55 L281.7,55 C280.7,55 279.9,54.2 279.9,53.2 C279.9,52.2 280.7,51.4 281.7,51.4 L294.1,51.4 C295.1,51.4 295.9,52.2 295.9,53.2 C295.9,54.2 295.1,55 294.1,55 Z M271.1,55 L258.7,55 C257.7,55 256.9,54.2 256.9,53.2 C256.9,52.2 257.7,51.4 258.7,51.4 L271.1,51.4 C272.1,51.4 272.9,52.2 272.9,53.2 C272.9,54.2 272.1,55 271.1,55 Z M248.1,55 L235.7,55 C234.7,55 233.9,54.2 233.9,53.2 C233.9,52.2 234.7,51.4 235.7,51.4 L248.1,51.4 C249.1,51.4 249.9,52.2 249.9,53.2 C249.9,54.2 249,55 248.1,55 Z M225.1,55 L212.7,55 C211.7,55 210.9,54.2 210.9,53.2 C210.9,52.2 211.7,51.4 212.7,51.4 L225.1,51.4 C226.1,51.4 226.9,52.2 226.9,53.2 C226.9,54.2 226,55 225.1,55 Z M202,55 L189.6,55 C188.6,55 187.8,54.2 187.8,53.2 C187.8,52.2 188.6,51.4 189.6,51.4 L202,51.4 C203,51.4 203.8,52.2 203.8,53.2 C203.8,54.2 203,55 202,55 Z M179,55 L166.6,55 C165.6,55 164.8,54.2 164.8,53.2 C164.8,52.2 165.6,51.4 166.6,51.4 L179,51.4 C180,51.4 180.8,52.2 180.8,53.2 C180.8,54.2 180,55 179,55 Z M156,55 L143.6,55 C142.6,55 141.8,54.2 141.8,53.2 C141.8,52.2 142.6,51.4 143.6,51.4 L156,51.4 C157,51.4 157.8,52.2 157.8,53.2 C157.8,54.2 157,55 156,55 Z M133,55 L120.6,55 C119.6,55 118.8,54.2 118.8,53.2 C118.8,52.2 119.6,51.4 120.6,51.4 L133,51.4 C134,51.4 134.8,52.2 134.8,53.2 C134.8,54.2 134,55 133,55 Z M110,55 L97.6,55 C96.6,55 95.8,54.2 95.8,53.2 C95.8,52.2 96.6,51.4 97.6,51.4 L110,51.4 C111,51.4 111.8,52.2 111.8,53.2 C111.8,54.2 110.9,55 110,55 Z M86.9,55 L74.6,55 C73.6,55 72.8,54.2 72.8,53.2 C72.8,52.2 73.6,51.4 74.6,51.4 L87,51.4 C88,51.4 88.8,52.2 88.8,53.2 C88.8,54.2 87.9,55 86.9,55 Z M63.9,55 L51.5,55 C50.5,55 49.7,54.2 49.7,53.2 C49.7,52.2 50.5,51.4 51.5,51.4 L63.9,51.4 C64.9,51.4 65.7,52.2 65.7,53.2 C65.7,54.2 64.9,55 63.9,55 Z M40.9,55 L28.5,55 C27.5,55 26.7,54.2 26.7,53.2 C26.7,52.2 27.5,51.4 28.5,51.4 L40.9,51.4 C41.9,51.4 42.7,52.2 42.7,53.2 C42.7,54.2 41.9,55 40.9,55 Z" id="Shape" fill-rule="nonzero"></path>
            </g>
        </g>
    </g>
</svg>